<svg xmlns="http://www.w3.org/2000/svg" width="880" height="800" viewBox="0 0 880 800" role="img" aria-label="Cold start vs Kryo restore">
<rect width="880" height="800" rx="16" fill="#16181d"/>
<g>
<rect x="630" y="18" width="12" height="12" rx="2" fill="#8b95a8"/>
<text x="646" y="28" fill="#9aa3b2" font-size="12" font-family="ui-sans-serif, system-ui, sans-serif">Cold start</text>
<rect x="740" y="18" width="12" height="12" rx="2" fill="#5ec8e6"/>
<text x="756" y="28" fill="#9aa3b2" font-size="12" font-family="ui-sans-serif, system-ui, sans-serif">Kryo restore</text>
</g>
<g transform="translate(0,0)">
<text x="64" y="32" fill="#e8eaed" font-size="20" font-weight="700" font-family="ui-sans-serif, system-ui, sans-serif">NVIDIA A10 · cold start vs Kryo restore</text><line x1="64" y1="338.0" x2="852" y2="338.0" stroke="#2a2e36" stroke-width="1"/><text x="54" y="342.0" fill="#9aa3b2" font-size="12" text-anchor="end" font-family="ui-sans-serif, system-ui, sans-serif">0s</text><line x1="64" y1="312.0" x2="852" y2="312.0" stroke="#2a2e36" stroke-width="1"/><text x="54" y="316.0" fill="#9aa3b2" font-size="12" text-anchor="end" font-family="ui-sans-serif, system-ui, sans-serif">1s</text><line x1="64" y1="286.0" x2="852" y2="286.0" stroke="#2a2e36" stroke-width="1"/><text x="54" y="290.0" fill="#9aa3b2" font-size="12" text-anchor="end" font-family="ui-sans-serif, system-ui, sans-serif">2s</text><line x1="64" y1="260.0" x2="852" y2="260.0" stroke="#2a2e36" stroke-width="1"/><text x="54" y="264.0" fill="#9aa3b2" font-size="12" text-anchor="end" font-family="ui-sans-serif, system-ui, sans-serif">3s</text><line x1="64" y1="234.0" x2="852" y2="234.0" stroke="#2a2e36" stroke-width="1"/><text x="54" y="238.0" fill="#9aa3b2" font-size="12" text-anchor="end" font-family="ui-sans-serif, system-ui, sans-serif">4s</text><line x1="64" y1="208.0" x2="852" y2="208.0" stroke="#2a2e36" stroke-width="1"/><text x="54" y="212.0" fill="#9aa3b2" font-size="12" text-anchor="end" font-family="ui-sans-serif, system-ui, sans-serif">5s</text><line x1="64" y1="182.0" x2="852" y2="182.0" stroke="#2a2e36" stroke-width="1"/><text x="54" y="186.0" fill="#9aa3b2" font-size="12" text-anchor="end" font-family="ui-sans-serif, system-ui, sans-serif">6s</text><line x1="64" y1="156.0" x2="852" y2="156.0" stroke="#2a2e36" stroke-width="1"/><text x="54" y="160.0" fill="#9aa3b2" font-size="12" text-anchor="end" font-family="ui-sans-serif, system-ui, sans-serif">7s</text><line x1="64" y1="130.0" x2="852" y2="130.0" stroke="#2a2e36" stroke-width="1"/><text x="54" y="134.0" fill="#9aa3b2" font-size="12" text-anchor="end" font-family="ui-sans-serif, system-ui, sans-serif">8s</text><line x1="64" y1="104.0" x2="852" y2="104.0" stroke="#2a2e36" stroke-width="1"/><text x="54" y="108.0" fill="#9aa3b2" font-size="12" text-anchor="end" font-family="ui-sans-serif, system-ui, sans-serif">9s</text><line x1="64" y1="78.0" x2="852" y2="78.0" stroke="#2a2e36" stroke-width="1"/><text x="54" y="82.0" fill="#9aa3b2" font-size="12" text-anchor="end" font-family="ui-sans-serif, system-ui, sans-serif">10s</text><rect x="122.5" y="292.6" width="36.0" height="45.4" rx="4" fill="#8b95a8"/><rect x="166.5" y="311.7" width="36.0" height="26.3" rx="4" fill="#5ec8e6"/><text x="184.5" y="303.7" fill="#7ee0a3" font-size="12" font-weight="600" text-anchor="middle" font-family="ui-sans-serif, system-ui, sans-serif">1.7x</text><text x="162.5" y="372" fill="#e8eaed" font-size="13" text-anchor="middle" font-family="ui-sans-serif, system-ui, sans-serif">PyTorch CUDA</text><rect x="319.5" y="249.7" width="36.0" height="88.3" rx="4" fill="#8b95a8"/><rect x="363.5" y="300.6" width="36.0" height="37.4" rx="4" fill="#5ec8e6"/><text x="381.5" y="292.6" fill="#7ee0a3" font-size="12" font-weight="600" text-anchor="middle" font-family="ui-sans-serif, system-ui, sans-serif">2.4x</text><text x="359.5" y="372" fill="#e8eaed" font-size="13" text-anchor="middle" font-family="ui-sans-serif, system-ui, sans-serif">YOLOv8n</text><rect x="516.5" y="197.6" width="36.0" height="140.4" rx="4" fill="#8b95a8"/><rect x="560.5" y="273.2" width="36.0" height="64.8" rx="4" fill="#5ec8e6"/><text x="578.5" y="265.2" fill="#7ee0a3" font-size="12" font-weight="600" text-anchor="middle" font-family="ui-sans-serif, system-ui, sans-serif">2.2x</text><text x="556.5" y="372" fill="#e8eaed" font-size="13" text-anchor="middle" font-family="ui-sans-serif, system-ui, sans-serif">Qwen 2.5-0.5B</text><rect x="713.5" y="207.6" width="36.0" height="130.4" rx="4" fill="#8b95a8"/><rect x="757.5" y="293.1" width="36.0" height="44.9" rx="4" fill="#5ec8e6"/><text x="775.5" y="285.1" fill="#7ee0a3" font-size="12" font-weight="600" text-anchor="middle" font-family="ui-sans-serif, system-ui, sans-serif">2.9x</text><text x="753.5" y="372" fill="#e8eaed" font-size="13" text-anchor="middle" font-family="ui-sans-serif, system-ui, sans-serif">Whisper-tiny</text>
</g>
<g transform="translate(0,400)">
<text x="64" y="32" fill="#e8eaed" font-size="20" font-weight="700" font-family="ui-sans-serif, system-ui, sans-serif">NVIDIA H100 · cold start vs Kryo restore</text><line x1="64" y1="338.0" x2="852" y2="338.0" stroke="#2a2e36" stroke-width="1"/><text x="54" y="342.0" fill="#9aa3b2" font-size="12" text-anchor="end" font-family="ui-sans-serif, system-ui, sans-serif">0s</text><line x1="64" y1="273.0" x2="852" y2="273.0" stroke="#2a2e36" stroke-width="1"/><text x="54" y="277.0" fill="#9aa3b2" font-size="12" text-anchor="end" font-family="ui-sans-serif, system-ui, sans-serif">50s</text><line x1="64" y1="208.0" x2="852" y2="208.0" stroke="#2a2e36" stroke-width="1"/><text x="54" y="212.0" fill="#9aa3b2" font-size="12" text-anchor="end" font-family="ui-sans-serif, system-ui, sans-serif">100s</text><line x1="64" y1="143.0" x2="852" y2="143.0" stroke="#2a2e36" stroke-width="1"/><text x="54" y="147.0" fill="#9aa3b2" font-size="12" text-anchor="end" font-family="ui-sans-serif, system-ui, sans-serif">150s</text><line x1="64" y1="78.0" x2="852" y2="78.0" stroke="#2a2e36" stroke-width="1"/><text x="54" y="82.0" fill="#9aa3b2" font-size="12" text-anchor="end" font-family="ui-sans-serif, system-ui, sans-serif">200s</text><rect x="155.3" y="306.7" width="36.0" height="31.3" rx="4" fill="#8b95a8"/><rect x="199.3" y="315.7" width="36.0" height="22.3" rx="4" fill="#5ec8e6"/><text x="217.3" y="307.7" fill="#7ee0a3" font-size="12" font-weight="600" text-anchor="middle" font-family="ui-sans-serif, system-ui, sans-serif">1.4x</text><text x="195.3" y="372" fill="#e8eaed" font-size="13" text-anchor="middle" font-family="ui-sans-serif, system-ui, sans-serif">Qwen 2.5-7B</text><rect x="418.0" y="303.8" width="36.0" height="34.2" rx="4" fill="#8b95a8"/><rect x="462.0" y="315.4" width="36.0" height="22.6" rx="4" fill="#5ec8e6"/><text x="480.0" y="307.4" fill="#7ee0a3" font-size="12" font-weight="600" text-anchor="middle" font-family="ui-sans-serif, system-ui, sans-serif">1.5x</text><text x="458.0" y="372" fill="#e8eaed" font-size="13" text-anchor="middle" font-family="ui-sans-serif, system-ui, sans-serif">torch.compile Qwen 2.5-7B</text><rect x="680.7" y="194.0" width="36.0" height="144.0" rx="4" fill="#8b95a8"/><rect x="724.7" y="234.4" width="36.0" height="103.6" rx="4" fill="#5ec8e6"/><text x="742.7" y="226.4" fill="#7ee0a3" font-size="12" font-weight="600" text-anchor="middle" font-family="ui-sans-serif, system-ui, sans-serif">1.4x</text><text x="720.7" y="372" fill="#e8eaed" font-size="13" text-anchor="middle" font-family="ui-sans-serif, system-ui, sans-serif">Qwen 2.5-32B</text>
</g>
</svg>
