<svg xmlns="http://www.w3.org/2000/svg" width="880" height="400" viewBox="0 0 880 400" role="img" aria-label="Cold start vs Kryo restore">
<rect width="880" height="400" rx="16" fill="#16181d"/>
<g>
<rect x="630" y="18" width="12" height="12" rx="2" fill="#8b95a8"/>
<text x="646" y="28" fill="#9aa3b2" font-size="12" font-family="ui-sans-serif, system-ui, sans-serif">Cold start</text>
<rect x="740" y="18" width="12" height="12" rx="2" fill="#5ec8e6"/>
<text x="756" y="28" fill="#9aa3b2" font-size="12" font-family="ui-sans-serif, system-ui, sans-serif">Kryo restore</text>
</g>
<g transform="translate(0,0)">
<text x="64" y="32" fill="#e8eaed" font-size="20" font-weight="700" font-family="ui-sans-serif, system-ui, sans-serif">NVIDIA H100 · cold start vs Kryo restore</text><line x1="64" y1="338.0" x2="852" y2="338.0" stroke="#2a2e36" stroke-width="1"/><text x="54" y="342.0" fill="#9aa3b2" font-size="12" text-anchor="end" font-family="ui-sans-serif, system-ui, sans-serif">0s</text><line x1="64" y1="273.0" x2="852" y2="273.0" stroke="#2a2e36" stroke-width="1"/><text x="54" y="277.0" fill="#9aa3b2" font-size="12" text-anchor="end" font-family="ui-sans-serif, system-ui, sans-serif">50s</text><line x1="64" y1="208.0" x2="852" y2="208.0" stroke="#2a2e36" stroke-width="1"/><text x="54" y="212.0" fill="#9aa3b2" font-size="12" text-anchor="end" font-family="ui-sans-serif, system-ui, sans-serif">100s</text><line x1="64" y1="143.0" x2="852" y2="143.0" stroke="#2a2e36" stroke-width="1"/><text x="54" y="147.0" fill="#9aa3b2" font-size="12" text-anchor="end" font-family="ui-sans-serif, system-ui, sans-serif">150s</text><line x1="64" y1="78.0" x2="852" y2="78.0" stroke="#2a2e36" stroke-width="1"/><text x="54" y="82.0" fill="#9aa3b2" font-size="12" text-anchor="end" font-family="ui-sans-serif, system-ui, sans-serif">200s</text><rect x="155.3" y="309.2" width="36.0" height="28.8" rx="4" fill="#8b95a8"/><rect x="199.3" y="315.1" width="36.0" height="22.9" rx="4" fill="#5ec8e6"/><text x="217.3" y="307.1" fill="#7ee0a3" font-size="12" font-weight="600" text-anchor="middle" font-family="ui-sans-serif, system-ui, sans-serif">1.3x</text><text x="195.3" y="372" fill="#e8eaed" font-size="13" text-anchor="middle" font-family="ui-sans-serif, system-ui, sans-serif">Qwen 2.5-7B</text><rect x="418.0" y="307.2" width="36.0" height="30.8" rx="4" fill="#8b95a8"/><rect x="462.0" y="315.2" width="36.0" height="22.8" rx="4" fill="#5ec8e6"/><text x="480.0" y="307.2" fill="#7ee0a3" font-size="12" font-weight="600" text-anchor="middle" font-family="ui-sans-serif, system-ui, sans-serif">1.4x</text><text x="458.0" y="372" fill="#e8eaed" font-size="13" text-anchor="middle" font-family="ui-sans-serif, system-ui, sans-serif">torch.compile Qwen 2.5-7B</text><rect x="680.7" y="213.2" width="36.0" height="124.8" rx="4" fill="#8b95a8"/><rect x="724.7" y="233.2" width="36.0" height="104.8" rx="4" fill="#5ec8e6"/><text x="742.7" y="225.2" fill="#7ee0a3" font-size="12" font-weight="600" text-anchor="middle" font-family="ui-sans-serif, system-ui, sans-serif">1.2x</text><text x="720.7" y="372" fill="#e8eaed" font-size="13" text-anchor="middle" font-family="ui-sans-serif, system-ui, sans-serif">Qwen 2.5-32B</text>
</g>
</svg>
