<svg xmlns="http://www.w3.org/2000/svg" width="880" height="420" viewBox="0 0 880 420" role="img" aria-label="Cold start vs Kryo restore">
  <rect width="880" height="420" rx="16" fill="#16181d"/>
  <text x="64" y="32" fill="#e8eaed" font-size="20" font-weight="700" font-family="ui-sans-serif, system-ui, sans-serif">Cold start vs Kryo restore</text>
  <text x="64" y="54" fill="#9aa3b2" font-size="12" font-family="ui-sans-serif, system-ui, sans-serif">NVIDIA A10 · Lambda gpu_1x_a10 · driver 570 · 1 timed run + warmup. Smoke test; each GitHub Release replaces this with 10-run numbers.</text>
  <g>
    <rect x="630" y="18" width="12" height="12" rx="2" fill="#8b95a8"/>
    <text x="646" y="28" fill="#9aa3b2" font-size="12" font-family="ui-sans-serif, system-ui, sans-serif">Cold start</text>
    <rect x="740" y="18" width="12" height="12" rx="2" fill="#5ec8e6"/>
    <text x="756" y="28" fill="#9aa3b2" font-size="12" font-family="ui-sans-serif, system-ui, sans-serif">Kryo restore</text>
  </g>
  <line x1="64" y1="358.0" x2="852" y2="358.0" stroke="#2a2e36" stroke-width="1"/><text x="54" y="362.0" fill="#9aa3b2" font-size="12" text-anchor="end" font-family="ui-sans-serif, system-ui, sans-serif">0s</text><line x1="64" y1="302.0" x2="852" y2="302.0" stroke="#2a2e36" stroke-width="1"/><text x="54" y="306.0" fill="#9aa3b2" font-size="12" text-anchor="end" font-family="ui-sans-serif, system-ui, sans-serif">1s</text><line x1="64" y1="246.0" x2="852" y2="246.0" stroke="#2a2e36" stroke-width="1"/><text x="54" y="250.0" fill="#9aa3b2" font-size="12" text-anchor="end" font-family="ui-sans-serif, system-ui, sans-serif">2s</text><line x1="64" y1="190.0" x2="852" y2="190.0" stroke="#2a2e36" stroke-width="1"/><text x="54" y="194.0" fill="#9aa3b2" font-size="12" text-anchor="end" font-family="ui-sans-serif, system-ui, sans-serif">3s</text><line x1="64" y1="134.0" x2="852" y2="134.0" stroke="#2a2e36" stroke-width="1"/><text x="54" y="138.0" fill="#9aa3b2" font-size="12" text-anchor="end" font-family="ui-sans-serif, system-ui, sans-serif">4s</text><line x1="64" y1="78.0" x2="852" y2="78.0" stroke="#2a2e36" stroke-width="1"/><text x="54" y="82.0" fill="#9aa3b2" font-size="12" text-anchor="end" font-family="ui-sans-serif, system-ui, sans-serif">5s</text>
  <rect x="122.5" y="280.7" width="36.0" height="77.3" rx="4" fill="#8b95a8"/><rect x="166.5" y="305.4" width="36.0" height="52.6" rx="4" fill="#5ec8e6"/><text x="184.5" y="297.4" fill="#7ee0a3" font-size="12" font-weight="600" text-anchor="middle" font-family="ui-sans-serif, system-ui, sans-serif">1.5×</text><text x="162.5" y="392" fill="#e8eaed" font-size="13" text-anchor="middle" font-family="ui-sans-serif, system-ui, sans-serif">PyTorch CUDA</text><rect x="319.5" y="206.8" width="36.0" height="151.2" rx="4" fill="#8b95a8"/><rect x="363.5" y="288.6" width="36.0" height="69.4" rx="4" fill="#5ec8e6"/><text x="381.5" y="280.6" fill="#7ee0a3" font-size="12" font-weight="600" text-anchor="middle" font-family="ui-sans-serif, system-ui, sans-serif">2.2×</text><text x="359.5" y="392" fill="#e8eaed" font-size="13" text-anchor="middle" font-family="ui-sans-serif, system-ui, sans-serif">YOLOv8n</text><rect x="516.5" y="119.4" width="36.0" height="238.6" rx="4" fill="#8b95a8"/><rect x="560.5" y="238.2" width="36.0" height="119.8" rx="4" fill="#5ec8e6"/><text x="578.5" y="230.2" fill="#7ee0a3" font-size="12" font-weight="600" text-anchor="middle" font-family="ui-sans-serif, system-ui, sans-serif">2.0×</text><text x="556.5" y="392" fill="#e8eaed" font-size="13" text-anchor="middle" font-family="ui-sans-serif, system-ui, sans-serif">Qwen 2.5-0.5B</text><rect x="713.5" y="138.5" width="36.0" height="219.5" rx="4" fill="#8b95a8"/><rect x="757.5" y="277.9" width="36.0" height="80.1" rx="4" fill="#5ec8e6"/><text x="775.5" y="269.9" fill="#7ee0a3" font-size="12" font-weight="600" text-anchor="middle" font-family="ui-sans-serif, system-ui, sans-serif">2.7×</text><text x="753.5" y="392" fill="#e8eaed" font-size="13" text-anchor="middle" font-family="ui-sans-serif, system-ui, sans-serif">Whisper-tiny</text>
</svg>
